<svg xmlns="http://www.w3.org/2000/svg" version="1.1" xmlns:xlink="http://www.w3.org/1999/xlink" xmlns:svgjs="http://svgjs.dev/svgjs" width="250" height="360"><svg version="1.2" xmlns="http://www.w3.org/2000/svg" viewBox="0 0 250 360" width="250" height="360">
	<title>FaderfoxEc4Icon</title>
	<style>
		.s0 { fill: #000000 } 
	</style>
	<path id="SvgjsPath1339" fill-rule="evenodd" class="s0" d="m96 305c13.8 0 25 11.2 25 25 0 13.8-11.2 25-25 25-13.8 0-25-11.2-25-25 0-13.8 11.2-25 25-25z"></path>
	<path id="SvgjsPath1338" fill-rule="evenodd" class="s0" d="m39 305c13.8 0 25 11.2 25 25 0 13.8-11.2 25-25 25-13.8 0-25-11.2-25-25 0-13.8 11.2-25 25-25z"></path>
	<path id="SvgjsPath1337" fill-rule="evenodd" class="s0" d="m153 305c13.8 0 25 11.2 25 25 0 13.8-11.2 25-25 25-13.8 0-25-11.2-25-25 0-13.8 11.2-25 25-25z"></path>
	<path id="SvgjsPath1336" fill-rule="evenodd" class="s0" d="m210 305c13.8 0 25 11.2 25 25 0 13.8-11.2 25-25 25-13.8 0-25-11.2-25-25 0-13.8 11.2-25 25-25z"></path>
	<path id="SvgjsPath1335" fill-rule="evenodd" class="s0" d="m96 246c13.8 0 25 11.2 25 25 0 13.8-11.2 25-25 25-13.8 0-25-11.2-25-25 0-13.8 11.2-25 25-25z"></path>
	<path id="SvgjsPath1334" fill-rule="evenodd" class="s0" d="m39 246c13.8 0 25 11.2 25 25 0 13.8-11.2 25-25 25-13.8 0-25-11.2-25-25 0-13.8 11.2-25 25-25z"></path>
	<path id="SvgjsPath1333" fill-rule="evenodd" class="s0" d="m153 246c13.8 0 25 11.2 25 25 0 13.8-11.2 25-25 25-13.8 0-25-11.2-25-25 0-13.8 11.2-25 25-25z"></path>
	<path id="SvgjsPath1332" fill-rule="evenodd" class="s0" d="m210 246c13.8 0 25 11.2 25 25 0 13.8-11.2 25-25 25-13.8 0-25-11.2-25-25 0-13.8 11.2-25 25-25z"></path>
	<path id="SvgjsPath1331" fill-rule="evenodd" class="s0" d="m96 187c13.8 0 25 11.2 25 25 0 13.8-11.2 25-25 25-13.8 0-25-11.2-25-25 0-13.8 11.2-25 25-25z"></path>
	<path id="SvgjsPath1330" fill-rule="evenodd" class="s0" d="m39 187c13.8 0 25 11.2 25 25 0 13.8-11.2 25-25 25-13.8 0-25-11.2-25-25 0-13.8 11.2-25 25-25z"></path>
	<path id="SvgjsPath1329" fill-rule="evenodd" class="s0" d="m153 187c13.8 0 25 11.2 25 25 0 13.8-11.2 25-25 25-13.8 0-25-11.2-25-25 0-13.8 11.2-25 25-25z"></path>
	<path id="SvgjsPath1328" fill-rule="evenodd" class="s0" d="m210 187c13.8 0 25 11.2 25 25 0 13.8-11.2 25-25 25-13.8 0-25-11.2-25-25 0-13.8 11.2-25 25-25z"></path>
	<path id="SvgjsPath1327" fill-rule="evenodd" class="s0" d="m96 128c13.8 0 25 11.2 25 25 0 13.8-11.2 25-25 25-13.8 0-25-11.2-25-25 0-13.8 11.2-25 25-25z"></path>
	<path id="SvgjsPath1326" fill-rule="evenodd" class="s0" d="m39 128c13.8 0 25 11.2 25 25 0 13.8-11.2 25-25 25-13.8 0-25-11.2-25-25 0-13.8 11.2-25 25-25z"></path>
	<path id="SvgjsPath1325" fill-rule="evenodd" class="s0" d="m153 128c13.8 0 25 11.2 25 25 0 13.8-11.2 25-25 25-13.8 0-25-11.2-25-25 0-13.8 11.2-25 25-25z"></path>
	<path id="SvgjsPath1324" fill-rule="evenodd" class="s0" d="m210 128c13.8 0 25 11.2 25 25 0 13.8-11.2 25-25 25-13.8 0-25-11.2-25-25 0-13.8 11.2-25 25-25z"></path>
	<path id="SvgjsPath1323" fill-rule="evenodd" class="s0" d="m182 46v67h-120v-67z"></path>
</svg><style>@media (prefers-color-scheme: light) { :root { filter: none; } }
@media (prefers-color-scheme: dark) { :root { filter: invert(100%); } }
</style></svg>