<svg xmlns="http://www.w3.org/2000/svg" version="1.1" xmlns:xlink="http://www.w3.org/1999/xlink" xmlns:svgjs="http://svgjs.dev/svgjs" width="270" height="300"><svg version="1.2" xmlns="http://www.w3.org/2000/svg" viewBox="0 0 300 333" width="270" height="300">
	<title>FaderfoxEc4Icon</title>
	<style>
		.s0 { fill: #000000 } 
	</style>
	<path id="SvgjsPath1307" fill-rule="evenodd" class="s0" d="m114 274c13.8 0 25 11.2 25 25 0 13.8-11.2 25-25 25-13.8 0-25-11.2-25-25 0-13.8 11.2-25 25-25z"></path>
	<path id="SvgjsPath1306" fill-rule="evenodd" class="s0" d="m42 274c13.8 0 25 11.2 25 25 0 13.8-11.2 25-25 25-13.8 0-25-11.2-25-25 0-13.8 11.2-25 25-25z"></path>
	<path id="SvgjsPath1305" fill-rule="evenodd" class="s0" d="m186 274c13.8 0 25 11.2 25 25 0 13.8-11.2 25-25 25-13.8 0-25-11.2-25-25 0-13.8 11.2-25 25-25z"></path>
	<path id="SvgjsPath1304" fill-rule="evenodd" class="s0" d="m258 274c13.8 0 25 11.2 25 25 0 13.8-11.2 25-25 25-13.8 0-25-11.2-25-25 0-13.8 11.2-25 25-25z"></path>
	<path id="SvgjsPath1303" fill-rule="evenodd" class="s0" d="m114 215c13.8 0 25 11.2 25 25 0 13.8-11.2 25-25 25-13.8 0-25-11.2-25-25 0-13.8 11.2-25 25-25z"></path>
	<path id="SvgjsPath1302" fill-rule="evenodd" class="s0" d="m42 215c13.8 0 25 11.2 25 25 0 13.8-11.2 25-25 25-13.8 0-25-11.2-25-25 0-13.8 11.2-25 25-25z"></path>
	<path id="SvgjsPath1301" fill-rule="evenodd" class="s0" d="m186 215c13.8 0 25 11.2 25 25 0 13.8-11.2 25-25 25-13.8 0-25-11.2-25-25 0-13.8 11.2-25 25-25z"></path>
	<path id="SvgjsPath1300" fill-rule="evenodd" class="s0" d="m258 215c13.8 0 25 11.2 25 25 0 13.8-11.2 25-25 25-13.8 0-25-11.2-25-25 0-13.8 11.2-25 25-25z"></path>
	<path id="SvgjsPath1299" fill-rule="evenodd" class="s0" d="m114 156c13.8 0 25 11.2 25 25 0 13.8-11.2 25-25 25-13.8 0-25-11.2-25-25 0-13.8 11.2-25 25-25z"></path>
	<path id="SvgjsPath1298" fill-rule="evenodd" class="s0" d="m42 156c13.8 0 25 11.2 25 25 0 13.8-11.2 25-25 25-13.8 0-25-11.2-25-25 0-13.8 11.2-25 25-25z"></path>
	<path id="SvgjsPath1297" fill-rule="evenodd" class="s0" d="m186 156c13.8 0 25 11.2 25 25 0 13.8-11.2 25-25 25-13.8 0-25-11.2-25-25 0-13.8 11.2-25 25-25z"></path>
	<path id="SvgjsPath1296" fill-rule="evenodd" class="s0" d="m258 156c13.8 0 25 11.2 25 25 0 13.8-11.2 25-25 25-13.8 0-25-11.2-25-25 0-13.8 11.2-25 25-25z"></path>
	<path id="SvgjsPath1295" fill-rule="evenodd" class="s0" d="m114 97c13.8 0 25 11.2 25 25 0 13.8-11.2 25-25 25-13.8 0-25-11.2-25-25 0-13.8 11.2-25 25-25z"></path>
	<path id="SvgjsPath1294" fill-rule="evenodd" class="s0" d="m42 97c13.8 0 25 11.2 25 25 0 13.8-11.2 25-25 25-13.8 0-25-11.2-25-25 0-13.8 11.2-25 25-25z"></path>
	<path id="SvgjsPath1293" fill-rule="evenodd" class="s0" d="m186 97c13.8 0 25 11.2 25 25 0 13.8-11.2 25-25 25-13.8 0-25-11.2-25-25 0-13.8 11.2-25 25-25z"></path>
	<path id="SvgjsPath1292" fill-rule="evenodd" class="s0" d="m258 97c13.8 0 25 11.2 25 25 0 13.8-11.2 25-25 25-13.8 0-25-11.2-25-25 0-13.8 11.2-25 25-25z"></path>
	<path id="SvgjsPath1291" fill-rule="evenodd" class="s0" d="m210 14v67h-120v-67z"></path>
</svg><style>@media (prefers-color-scheme: light) { :root { filter: none; } }
@media (prefers-color-scheme: dark) { :root { filter: invert(100%); } }
</style></svg>